<mxfile host="app.diagrams.net" agent="Mozilla/5.0 (Windows NT 10.0; Win64; x64) AppleWebKit/537.36 (KHTML, like Gecko) Chrome/131.0.0.0 Safari/537.36" version="26.0.7">
  <diagram name="Page-1" id="ivQUmCczbcy-Hj9je45-">
    <mxGraphModel dx="794" dy="446" grid="1" gridSize="10" guides="1" tooltips="1" connect="1" arrows="1" fold="1" page="1" pageScale="1" pageWidth="850" pageHeight="1100" math="0" shadow="0">
      <root>
        <mxCell id="0" />
        <mxCell id="1" parent="0" />
        <mxCell id="S-GTUuIbRlFvGSS8Wjij-1" value="User Uploads CSV File" style="whiteSpace=wrap;strokeWidth=2;sketch=1;curveFitting=1;jiggle=2;fillColor=#b0e3e6;shadow=1;fontFamily=Merienda;fontSource=https%3A%2F%2Ffonts.googleapis.com%2Fcss%3Ffamily%3DMerienda;fontSize=14;fontStyle=1;strokeColor=#0e8088;gradientColor=none;rounded=1;fontColor=#009900;" vertex="1" parent="1">
          <mxGeometry x="181" y="20" width="216" height="54" as="geometry" />
        </mxCell>
        <mxCell id="S-GTUuIbRlFvGSS8Wjij-2" value="Read CSV Data" style="whiteSpace=wrap;strokeWidth=2;sketch=1;curveFitting=1;jiggle=2;fillColor=#b1ddf0;strokeColor=#000000;shadow=1;fontFamily=Merienda;fontSource=https%3A%2F%2Ffonts.googleapis.com%2Fcss%3Ffamily%3DMerienda;fontColor=#3333FF;fontStyle=1" vertex="1" parent="1">
          <mxGeometry x="207" y="130" width="164" height="54" as="geometry" />
        </mxCell>
        <mxCell id="S-GTUuIbRlFvGSS8Wjij-3" value="Check Required Columns" style="whiteSpace=wrap;strokeWidth=2;sketch=1;curveFitting=1;jiggle=2;fillColor=#b1ddf0;strokeColor=#000000;shadow=1;fontColor=#3333FF;fontFamily=Merienda;fontSource=https%3A%2F%2Ffonts.googleapis.com%2Fcss%3Ffamily%3DMerienda;fontStyle=1" vertex="1" parent="1">
          <mxGeometry x="171" y="228" width="236" height="54" as="geometry" />
        </mxCell>
        <mxCell id="S-GTUuIbRlFvGSS8Wjij-4" value="Run Rating Calculation Tool" style="whiteSpace=wrap;strokeWidth=2;sketch=1;curveFitting=1;jiggle=2;fillColor=#b1ddf0;strokeColor=#000000;shadow=1;fontColor=#3333FF;fontStyle=1;fontFamily=Courgette;fontSource=https%3A%2F%2Ffonts.googleapis.com%2Fcss%3Ffamily%3DCourgette;" vertex="1" parent="1">
          <mxGeometry x="22" y="355" width="256" height="54" as="geometry" />
        </mxCell>
        <mxCell id="S-GTUuIbRlFvGSS8Wjij-5" value="Generate Ratings Using OpenAI Model" style="whiteSpace=wrap;strokeWidth=2;sketch=1;curveFitting=1;jiggle=2;fillColor=#b1ddf0;strokeColor=#000000;shadow=1;fontStyle=1;fontColor=#3333FF;fontFamily=Merienda;fontSource=https%3A%2F%2Ffonts.googleapis.com%2Fcss%3Ffamily%3DMerienda;" vertex="1" parent="1">
          <mxGeometry x="20" y="459" width="260" height="78" as="geometry" />
        </mxCell>
        <mxCell id="S-GTUuIbRlFvGSS8Wjij-6" value="Return Processed Data with Ratings" style="whiteSpace=wrap;strokeWidth=2;sketch=1;curveFitting=1;jiggle=2;fillColor=#b1ddf0;strokeColor=#000000;shadow=1;fontFamily=Merienda;fontSource=https%3A%2F%2Ffonts.googleapis.com%2Fcss%3Ffamily%3DMerienda;fontStyle=1;fontColor=#3333FF;" vertex="1" parent="1">
          <mxGeometry x="20" y="587" width="260" height="78" as="geometry" />
        </mxCell>
        <mxCell id="S-GTUuIbRlFvGSS8Wjij-7" value="Display Processed Data with Ratings" style="whiteSpace=wrap;strokeWidth=2;sketch=1;curveFitting=1;jiggle=2;fillColor=#b1ddf0;strokeColor=#000000;shadow=1;fontStyle=1;fontFamily=Merienda;fontSource=https%3A%2F%2Ffonts.googleapis.com%2Fcss%3Ffamily%3DMerienda;fontColor=#3333FF;" vertex="1" parent="1">
          <mxGeometry x="20" y="715" width="260" height="78" as="geometry" />
        </mxCell>
        <mxCell id="S-GTUuIbRlFvGSS8Wjij-8" value="Run Top Provider Tool" style="whiteSpace=wrap;strokeWidth=2;sketch=1;curveFitting=1;jiggle=2;fillColor=#b1ddf0;strokeColor=#000000;shadow=1;fontColor=#3333FF;fontFamily=Merienda;fontSource=https%3A%2F%2Ffonts.googleapis.com%2Fcss%3Ffamily%3DMerienda;fontStyle=1" vertex="1" parent="1">
          <mxGeometry x="43" y="843" width="213" height="54" as="geometry" />
        </mxCell>
        <mxCell id="S-GTUuIbRlFvGSS8Wjij-9" value="Identify Top Providers Using OpenAI Model" style="whiteSpace=wrap;strokeWidth=2;sketch=1;curveFitting=1;jiggle=2;fillColor=#b1ddf0;strokeColor=#000000;shadow=1;fontStyle=1;fontFamily=Merienda;fontSource=https%3A%2F%2Ffonts.googleapis.com%2Fcss%3Ffamily%3DMerienda;fontColor=#3333FF;" vertex="1" parent="1">
          <mxGeometry x="20" y="947" width="260" height="78" as="geometry" />
        </mxCell>
        <mxCell id="S-GTUuIbRlFvGSS8Wjij-10" value="Return Top Providers Data" style="whiteSpace=wrap;strokeWidth=2;sketch=1;curveFitting=1;jiggle=2;fillColor=#b1ddf0;strokeColor=#000000;shadow=1;fontColor=#3333FF;fontFamily=Merienda;fontSource=https%3A%2F%2Ffonts.googleapis.com%2Fcss%3Ffamily%3DMerienda;fontStyle=1" vertex="1" parent="1">
          <mxGeometry x="27" y="1075" width="245" height="54" as="geometry" />
        </mxCell>
        <mxCell id="S-GTUuIbRlFvGSS8Wjij-11" value="Display Top Providers by Service Category" style="whiteSpace=wrap;strokeWidth=2;sketch=1;curveFitting=1;jiggle=2;fillColor=#b1ddf0;strokeColor=#000000;shadow=1;fontColor=#3333FF;fontStyle=1;fontFamily=Merienda;fontSource=https%3A%2F%2Ffonts.googleapis.com%2Fcss%3Ffamily%3DMerienda;" vertex="1" parent="1">
          <mxGeometry x="20" y="1179" width="260" height="78" as="geometry" />
        </mxCell>
        <mxCell id="S-GTUuIbRlFvGSS8Wjij-12" value="Show Error Message" style="whiteSpace=wrap;strokeWidth=2;sketch=1;curveFitting=1;jiggle=2;fillColor=#b1ddf0;strokeColor=#000000;shadow=1;fontStyle=1;fontColor=#3333FF;fontFamily=Merienda;fontSource=https%3A%2F%2Ffonts.googleapis.com%2Fcss%3Ffamily%3DMerienda;" vertex="1" parent="1">
          <mxGeometry x="328" y="355" width="201" height="54" as="geometry" />
        </mxCell>
        <mxCell id="S-GTUuIbRlFvGSS8Wjij-13" value="" style="curved=1;startArrow=none;endArrow=block;exitX=0.5;exitY=1;entryX=0.5;entryY=0;rounded=0;sketch=1;curveFitting=1;jiggle=2;fillColor=#b1ddf0;strokeColor=#000000;shadow=1;" edge="1" parent="1" source="S-GTUuIbRlFvGSS8Wjij-1" target="S-GTUuIbRlFvGSS8Wjij-2">
          <mxGeometry relative="1" as="geometry">
            <Array as="points" />
          </mxGeometry>
        </mxCell>
        <mxCell id="S-GTUuIbRlFvGSS8Wjij-14" value="" style="curved=1;startArrow=none;endArrow=block;exitX=0.5;exitY=1;entryX=0.5;entryY=0;rounded=0;sketch=1;curveFitting=1;jiggle=2;fillColor=#b1ddf0;strokeColor=#000000;shadow=1;" edge="1" parent="1" source="S-GTUuIbRlFvGSS8Wjij-2" target="S-GTUuIbRlFvGSS8Wjij-3">
          <mxGeometry relative="1" as="geometry">
            <Array as="points" />
          </mxGeometry>
        </mxCell>
        <mxCell id="S-GTUuIbRlFvGSS8Wjij-15" value="Valid" style="curved=1;startArrow=none;endArrow=block;exitX=0.25;exitY=1;entryX=0.5;entryY=-0.01;rounded=0;sketch=1;curveFitting=1;jiggle=2;fillColor=#b1ddf0;strokeColor=#000000;shadow=1;fontFamily=Merienda;fontSource=https%3A%2F%2Ffonts.googleapis.com%2Fcss%3Ffamily%3DMerienda;" edge="1" parent="1" source="S-GTUuIbRlFvGSS8Wjij-3" target="S-GTUuIbRlFvGSS8Wjij-4">
          <mxGeometry relative="1" as="geometry">
            <Array as="points">
              <mxPoint x="150" y="318" />
            </Array>
          </mxGeometry>
        </mxCell>
        <mxCell id="S-GTUuIbRlFvGSS8Wjij-16" value="" style="curved=1;startArrow=none;endArrow=block;exitX=0.5;exitY=0.99;entryX=0.5;entryY=0;rounded=0;sketch=1;curveFitting=1;jiggle=2;fillColor=#b1ddf0;strokeColor=#000000;shadow=1;" edge="1" parent="1" source="S-GTUuIbRlFvGSS8Wjij-4" target="S-GTUuIbRlFvGSS8Wjij-5">
          <mxGeometry relative="1" as="geometry">
            <Array as="points" />
          </mxGeometry>
        </mxCell>
        <mxCell id="S-GTUuIbRlFvGSS8Wjij-17" value="" style="curved=1;startArrow=none;endArrow=block;exitX=0.5;exitY=1;entryX=0.5;entryY=0;rounded=0;sketch=1;curveFitting=1;jiggle=2;fillColor=#b1ddf0;strokeColor=#000000;shadow=1;" edge="1" parent="1" source="S-GTUuIbRlFvGSS8Wjij-5" target="S-GTUuIbRlFvGSS8Wjij-6">
          <mxGeometry relative="1" as="geometry">
            <Array as="points" />
          </mxGeometry>
        </mxCell>
        <mxCell id="S-GTUuIbRlFvGSS8Wjij-18" value="" style="curved=1;startArrow=none;endArrow=block;exitX=0.5;exitY=1;entryX=0.5;entryY=0;rounded=0;sketch=1;curveFitting=1;jiggle=2;fillColor=#b1ddf0;strokeColor=#000000;shadow=1;" edge="1" parent="1" source="S-GTUuIbRlFvGSS8Wjij-6" target="S-GTUuIbRlFvGSS8Wjij-7">
          <mxGeometry relative="1" as="geometry">
            <Array as="points" />
          </mxGeometry>
        </mxCell>
        <mxCell id="S-GTUuIbRlFvGSS8Wjij-19" value="" style="curved=1;startArrow=none;endArrow=block;exitX=0.5;exitY=1;entryX=0.5;entryY=-0.01;rounded=0;sketch=1;curveFitting=1;jiggle=2;fillColor=#b1ddf0;strokeColor=#000000;shadow=1;" edge="1" parent="1" source="S-GTUuIbRlFvGSS8Wjij-7" target="S-GTUuIbRlFvGSS8Wjij-8">
          <mxGeometry relative="1" as="geometry">
            <Array as="points" />
          </mxGeometry>
        </mxCell>
        <mxCell id="S-GTUuIbRlFvGSS8Wjij-20" value="" style="curved=1;startArrow=none;endArrow=block;exitX=0.5;exitY=0.99;entryX=0.5;entryY=0;rounded=0;sketch=1;curveFitting=1;jiggle=2;fillColor=#b1ddf0;strokeColor=#000000;shadow=1;" edge="1" parent="1" source="S-GTUuIbRlFvGSS8Wjij-8" target="S-GTUuIbRlFvGSS8Wjij-9">
          <mxGeometry relative="1" as="geometry">
            <Array as="points" />
          </mxGeometry>
        </mxCell>
        <mxCell id="S-GTUuIbRlFvGSS8Wjij-21" value="" style="curved=1;startArrow=none;endArrow=block;exitX=0.5;exitY=1;entryX=0.5;entryY=-0.01;rounded=0;sketch=1;curveFitting=1;jiggle=2;fillColor=#b1ddf0;strokeColor=#000000;shadow=1;" edge="1" parent="1" source="S-GTUuIbRlFvGSS8Wjij-9" target="S-GTUuIbRlFvGSS8Wjij-10">
          <mxGeometry relative="1" as="geometry">
            <Array as="points" />
          </mxGeometry>
        </mxCell>
        <mxCell id="S-GTUuIbRlFvGSS8Wjij-22" value="" style="curved=1;startArrow=none;endArrow=block;exitX=0.5;exitY=0.99;entryX=0.5;entryY=0;rounded=0;sketch=1;curveFitting=1;jiggle=2;fillColor=#b1ddf0;strokeColor=#000000;shadow=1;" edge="1" parent="1" source="S-GTUuIbRlFvGSS8Wjij-10" target="S-GTUuIbRlFvGSS8Wjij-11">
          <mxGeometry relative="1" as="geometry">
            <Array as="points" />
          </mxGeometry>
        </mxCell>
        <mxCell id="S-GTUuIbRlFvGSS8Wjij-23" value="Invalid" style="curved=1;startArrow=none;endArrow=block;exitX=0.75;exitY=1;entryX=0.5;entryY=-0.01;rounded=0;sketch=1;curveFitting=1;jiggle=2;fillColor=#b1ddf0;strokeColor=#000000;shadow=1;fontFamily=Merienda;fontSource=https%3A%2F%2Ffonts.googleapis.com%2Fcss%3Ffamily%3DMerienda;" edge="1" parent="1" source="S-GTUuIbRlFvGSS8Wjij-3" target="S-GTUuIbRlFvGSS8Wjij-12">
          <mxGeometry relative="1" as="geometry">
            <Array as="points">
              <mxPoint x="428" y="318" />
            </Array>
          </mxGeometry>
        </mxCell>
      </root>
    </mxGraphModel>
  </diagram>
</mxfile>
